<?xml version="1.0" standalone="no"?>
<!DOCTYPE svg PUBLIC "-//W3C//DTD SVG 20010904//EN"
 "http://www.w3.org/TR/2001/REC-SVG-20010904/DTD/svg10.dtd">
<svg version="1.0" xmlns="http://www.w3.org/2000/svg"
 width="487.000000pt" height="477.000000pt" viewBox="0 0 487.000000 477.000000"
 preserveAspectRatio="xMidYMid meet">

<g transform="translate(0.000000,477.000000) scale(0.100000,-0.100000)"
fill="#000000" stroke="none">
<path d="M0 2385 l0 -2385 2435 0 2435 0 0 2385 0 2385 -2435 0 -2435 0 0
-2385z m4205 1653 c85 -28 137 -61 197 -127 61 -66 86 -107 72 -120 -12 -11
-170 -71 -186 -71 -7 1 -25 18 -40 40 -43 61 -106 93 -199 98 -74 4 -84 2
-144 -27 -110 -54 -170 -163 -170 -306 1 -140 55 -244 156 -300 49 -27 63 -30
144 -30 107 0 150 18 213 90 l40 46 89 -31 c48 -17 94 -33 101 -35 20 -7 -21
-77 -81 -137 -118 -118 -294 -169 -466 -134 -100 20 -151 42 -218 92 -134 102
-205 251 -206 434 -1 163 46 284 152 389 143 143 354 193 546 129z m-3316 -9
c108 -25 212 -103 249 -187 10 -25 16 -67 16 -127 1 -79 -2 -97 -28 -148 -26
-55 -79 -104 -161 -152 -15 -9 -3 -32 104 -203 67 -106 121 -195 121 -198 0
-3 -57 -3 -126 -2 l-127 3 -109 183 -110 182 -69 0 -69 0 0 -185 0 -185 -110
0 -110 0 0 515 0 515 243 0 c133 0 262 -5 286 -11z m1161 -89 l0 -100 -225 0
-225 0 0 -105 0 -105 198 -2 197 -3 0 -95 0 -95 -197 -3 -198 -2 0 -110 0
-110 230 0 230 0 0 -100 0 -100 -340 2 -340 3 -3 513 -2 512 338 0 337 0 0
-100z m450 -315 l0 -415 215 0 215 0 0 -100 0 -100 -325 0 -325 0 0 515 0 515
110 0 110 0 0 -415z m820 -100 l0 -515 -110 0 -110 0 0 515 0 515 110 0 110 0
0 -515z m-2068 -805 c38 -11 98 -59 98 -79 0 -6 -12 -16 -27 -22 -21 -8 -30
-6 -49 12 -13 12 -41 23 -66 26 -37 4 -49 1 -76 -22 -59 -50 -62 -148 -5 -201
37 -34 101 -33 143 2 27 23 35 25 56 16 31 -15 30 -23 -8 -61 -83 -81 -229
-56 -283 49 -54 104 -5 238 100 275 49 17 69 18 117 5z m905 -1 c32 -12 73
-47 73 -64 0 -6 -13 -16 -29 -22 -25 -9 -32 -8 -47 8 -23 25 -76 25 -99 -1
-17 -19 -17 -21 -1 -38 9 -11 42 -25 73 -32 73 -16 113 -53 113 -105 0 -102
-100 -154 -207 -106 -24 12 -48 32 -57 49 -15 29 -15 29 19 39 29 9 36 8 47
-8 34 -50 123 -39 123 16 0 29 -4 31 -79 57 -44 14 -86 34 -93 44 -18 25 -16
95 3 123 31 44 104 62 161 40z m1476 0 c47 -13 106 -63 123 -106 47 -110 -28
-252 -142 -269 -136 -20 -246 102 -214 237 15 60 63 116 115 134 49 17 69 18
118 4z m-3003 -28 c0 -29 -2 -30 -52 -33 l-53 -3 -3 -152 -3 -153 -35 0 -35 0
2 153 1 152 -51 3 c-49 3 -51 4 -51 33 l0 29 140 0 140 0 0 -29z m308 -3 l-3
-33 -80 -1 -80 0 -3 -42 -3 -42 75 0 76 0 0 -35 0 -35 -72 3 -73 2 0 -45 0
-45 83 -3 82 -3 0 -29 0 -30 -120 0 -120 0 0 185 0 185 121 0 120 0 -3 -32z
m572 -43 l0 -75 80 0 80 0 0 75 0 75 35 0 35 0 0 -185 0 -185 -35 0 -34 0 -3
76 -3 75 -78 2 -77 2 0 -77 0 -78 -35 0 -35 0 0 185 0 185 35 0 35 0 0 -75z
m880 -58 c0 -157 8 -177 71 -177 26 0 46 7 59 20 18 18 20 33 20 155 l0 135
35 0 35 0 0 -140 c0 -104 -4 -148 -14 -169 -46 -88 -204 -94 -256 -9 -17 29
-20 50 -20 176 l0 142 35 0 35 0 0 -133z m528 119 c46 -24 65 -53 65 -99 0
-23 -5 -53 -12 -65 -17 -32 -86 -62 -143 -62 l-48 0 0 -65 0 -65 -35 0 -35 0
0 185 0 185 90 0 c58 0 101 -5 118 -14z m363 -9 c66 -45 71 -143 8 -188 -21
-14 -51 -23 -95 -27 l-64 -5 0 -63 0 -64 -35 0 -35 0 0 185 0 185 94 0 c80 0
98 -3 127 -23z m783 9 c45 -19 66 -52 66 -105 0 -37 -5 -49 -36 -77 l-35 -34
37 -63 c20 -34 39 -65 41 -69 2 -5 -14 -8 -36 -8 -39 0 -41 2 -82 71 -37 61
-45 70 -68 67 -25 -3 -26 -6 -29 -70 l-3 -68 -32 0 -32 0 0 185 0 185 88 0
c52 0 101 -6 121 -14z m394 -18 c-3 -32 -4 -32 -50 -29 l-48 3 0 -156 0 -156
-35 0 -34 0 -3 153 -3 152 -50 1 c-27 0 -49 4 -47 7 1 4 2 18 2 32 l0 25 136
0 135 0 -3 -32z m-1853 -623 c39 -8 111 -35 161 -60 76 -37 104 -58 162 -120
112 -120 175 -268 189 -444 l6 -79 46 -7 c60 -9 107 -45 121 -93 14 -52 12
-398 -3 -441 -16 -46 -55 -73 -115 -79 l-49 -4 -7 -69 c-8 -84 -34 -156 -81
-225 -67 -97 -164 -143 -315 -152 -87 -4 -98 -7 -128 -33 -31 -27 -38 -29
-123 -29 -50 0 -99 5 -110 10 -44 24 -62 106 -34 159 37 73 227 83 282 15 l22
-28 95 11 c52 6 112 20 132 29 57 27 109 85 135 150 24 59 24 61 24 479 0 371
-2 428 -18 485 -64 235 -215 384 -430 425 -160 30 -369 11 -494 -45 -87 -40
-198 -150 -241 -242 -63 -131 -65 -148 -70 -548 -2 -233 -7 -369 -14 -377 -7
-9 -39 -13 -93 -13 -97 0 -142 22 -162 80 -18 53 -17 411 1 455 19 45 69 75
124 75 l42 0 0 60 c0 214 124 452 292 561 65 42 179 86 253 98 85 15 324 12
400 -4z m-129 -551 c7 -44 15 -61 34 -75 43 -30 64 -31 105 -3 l38 25 58 -57
c55 -55 58 -59 44 -79 -49 -66 -47 -61 -31 -98 14 -35 22 -40 84 -52 l32 -7 0
-78 c0 -84 -4 -89 -68 -90 -24 0 -62 -51 -62 -84 0 -11 12 -34 26 -53 29 -38
29 -37 -35 -105 -19 -21 -40 -38 -45 -38 -5 0 -27 12 -47 26 -29 20 -45 24
-68 19 -40 -8 -51 -25 -59 -82 l-7 -48 -82 -3 -81 -3 -7 43 c-11 70 -14 76
-51 88 -32 11 -39 9 -74 -14 -22 -14 -43 -26 -48 -26 -4 0 -32 24 -61 54 l-54
55 31 39 c29 36 30 41 20 77 -13 39 -28 50 -90 60 l-38 6 0 79 c0 79 0 80 28
85 60 12 78 22 91 49 15 31 9 49 -31 99 l-22 27 54 55 c30 30 58 55 62 55 5 0
27 -12 49 -27 39 -26 41 -26 75 -10 37 18 54 49 54 101 0 18 3 36 7 39 3 4 41
7 84 7 l77 0 8 -56z"/>
<path d="M580 3711 l0 -141 103 0 c128 1 192 20 224 69 45 66 20 151 -53 186
-28 13 -71 19 -156 23 l-118 5 0 -142z"/>
<path d="M3535 2651 c-44 -18 -60 -50 -60 -118 0 -60 2 -67 33 -94 61 -55 153
-31 182 46 40 104 -56 206 -155 166z"/>
<path d="M2780 2606 l0 -56 48 0 c114 0 118 93 5 107 l-53 6 0 -57z"/>
<path d="M3137 2654 c-4 -4 -7 -29 -7 -56 l0 -48 46 0 c60 0 84 14 84 49 0 16
-6 33 -12 39 -17 13 -101 26 -111 16z"/>
<path d="M3923 2645 c-2 -7 -3 -30 -1 -51 l3 -39 51 0 c29 1 59 7 68 14 19 16
21 55 4 69 -21 16 -119 21 -125 7z"/>
<path d="M2274 1278 c-132 -89 -133 -279 -2 -365 47 -31 143 -43 200 -24 75
25 137 117 138 204 0 127 -93 217 -223 217 -56 0 -71 -4 -113 -32z"/>
</g>
</svg>
